<svg xmlns="http://www.w3.org/2000/svg" xmlns:xlink="http://www.w3.org/1999/xlink" width="1080" zoomAndPan="magnify" viewBox="0 0 810 809.999993" height="1080" preserveAspectRatio="xMidYMid meet" version="1.0"><path fill="#2f3c7e" d="M 417.9375 639.929688 C 411.59375 633.796875 412.164062 623.410156 417.203125 616.660156 C 419.269531 613.878906 421.882812 611.527344 424.117188 608.875 C 431.535156 600.378906 438.332031 591.226562 443.027344 580.925781 C 453.6875 557.167969 455.136719 529.523438 446.746094 504.839844 C 441.292969 488.976562 431.058594 475.402344 420.292969 462.746094 C 392.007812 479.386719 360.15625 490.84375 327.179688 492.257812 C 294.210938 493.660156 255.804688 483.496094 237.691406 453.75 C 228.753906 438.46875 227.71875 417.882812 237.597656 402.792969 C 244.25 392.691406 254.53125 385.667969 265.417969 380.757812 C 293.75 368.257812 326.167969 372.582031 355.023438 381.03125 C 380.671875 388.257812 404.582031 401.070312 424.773438 418.441406 C 467.007812 385.59375 497.621094 341.195312 483.765625 285.683594 C 455.945312 306.933594 405.105469 315.21875 371.839844 305.363281 C 335.214844 295.488281 314.296875 260.988281 323.804688 224.042969 C 334.046875 181.007812 385.101562 164.167969 424.582031 173.238281 C 453.460938 180.605469 477.441406 201.332031 494.628906 225.085938 C 506.011719 207.046875 515.234375 185.597656 516.933594 164.300781 C 517.21875 149.125 515.34375 133.054688 505.5 120.863281 C 495.945312 109.394531 483.671875 100.160156 470.753906 92.804688 C 461.886719 88.5625 452.472656 85.089844 442.644531 84.058594 C 438.75 83.902344 434.957031 84.984375 431.070312 85.078125 C 415.277344 85.769531 407.351562 66.433594 419.863281 56.355469 C 436.40625 45.660156 457.738281 51.1875 474.960938 57.4375 C 490.824219 63.34375 504.835938 73.289062 517.527344 84.332031 C 523.484375 89.59375 529.199219 95.132812 533.859375 101.621094 C 549.519531 122.492188 553.417969 149.945312 550.316406 175.339844 C 545.230469 206.023438 531.625 235.449219 511.894531 259.480469 C 538.230469 333.839844 507.996094 396.277344 448.851562 443.136719 C 461.601562 458.625 473.332031 475.390625 479.570312 494.644531 C 491.207031 529.238281 488.164062 568.433594 471.488281 600.878906 C 466.117188 611.417969 459.058594 620.996094 451.320312 629.921875 C 448.089844 633.511719 445.070312 637.363281 441.339844 640.441406 C 434.648438 645.714844 424.15625 646.289062 417.9375 639.929688 Z M 328.878906 457.746094 C 351.730469 456.082031 373.933594 448.675781 394.074219 437.945312 C 366.492188 416.019531 296.398438 391.964844 267.472656 420.128906 C 263.609375 424.503906 264.835938 431.089844 267.152344 435.925781 C 270.46875 442.355469 276.730469 446.453125 282.992188 449.675781 C 297.160156 456.792969 313.203125 458.835938 328.878906 457.746094 Z M 394.289062 274.824219 C 406.457031 275.855469 416.238281 274.691406 427.671875 272.539062 C 445.011719 269.082031 457.511719 263.628906 471.121094 252.183594 C 458 230.304688 434.46875 207.699219 407.980469 205.359375 C 392.363281 204.882812 374.8125 207.949219 363.699219 219.8125 C 354.691406 230.421875 353.289062 247.15625 360.917969 258.898438 C 368.359375 269.582031 381.976562 273.359375 394.289062 274.824219 Z M 394.289062 274.824219 " fill-opacity="1" fill-rule="nonzero"/></svg>