<svg xmlns="http://www.w3.org/2000/svg" xmlns:xlink="http://www.w3.org/1999/xlink" width="1080" zoomAndPan="magnify" viewBox="0 0 810 809.999993" height="1080" preserveAspectRatio="xMidYMid meet" version="1.0"><path fill="#449a53" d="M 761.492188 313.40625 C 733.414062 311.292969 705.183594 319.425781 677.089844 321.191406 C 629.84375 325.097656 582.871094 331.054688 536.078125 338.703125 C 510.769531 343.066406 485.289062 346.074219 459.765625 348.570312 C 461.773438 345.574219 463.75 342.5625 465.785156 339.585938 C 502.941406 285.117188 543.179688 223.882812 586.535156 171.375 C 597.570312 157.648438 608.5625 143.816406 618.414062 129.191406 C 627.625 117.394531 636.410156 98.652344 621.757812 87.433594 C 599.136719 71.714844 584.710938 102.4375 571.699219 116.40625 C 522.703125 172.183594 478.828125 232.109375 437.023438 293.445312 C 422.839844 219.339844 404.980469 145.972656 392.652344 71.394531 C 389.65625 55.8125 391.527344 32.554688 372.78125 27.066406 C 363.25 24.421875 352.425781 29.664062 348.777344 38.847656 C 346.390625 44.804688 346.621094 51.359375 346.605469 57.683594 C 346.832031 75.390625 348.351562 93.070312 351.4375 110.507812 C 362.671875 183.128906 379.089844 254.878906 391.554688 327.285156 C 381.855469 319.441406 372.160156 311.582031 362.445312 303.769531 C 288.761719 244.511719 215.960938 184.191406 141.121094 126.441406 C 131.695312 118.640625 124.125 107.605469 112.464844 102.96875 C 90.574219 93.480469 70.191406 120.738281 84.980469 138.828125 C 84.9375 138.828125 84.875 138.828125 84.828125 138.828125 C 103.359375 162.164062 127.289062 180.058594 150.746094 198.117188 C 196.730469 234.738281 241.148438 273.289062 287.46875 309.53125 C 307.765625 325.980469 328.027344 342.488281 348.261719 359.011719 C 339.230469 360.03125 330.21875 361.140625 321.21875 362.386719 C 274.136719 368.984375 227.253906 376.933594 180.191406 383.699219 C 142.199219 388.125 109.394531 396.210938 70.691406 402.277344 C 55.277344 405.210938 35.652344 402.898438 24.464844 415.820312 C 24.476562 415.820312 24.476562 415.820312 24.492188 415.835938 C 20.722656 420.792969 19.386719 427.359375 20.953125 433.667969 C 23.292969 443.046875 31.925781 448.703125 41.09375 449.902344 C 68.03125 451.726562 95.105469 447.0625 121.585938 442.5 C 191.136719 431.828125 260.898438 422.28125 330.566406 412.324219 C 341.039062 410.894531 351.53125 409.710938 362.035156 408.632812 C 318.464844 479.105469 274.667969 549.476562 233.59375 621.410156 C 224.882812 637.449219 216.796875 653.898438 209.089844 670.4375 C 199.070312 687.492188 199.253906 710.964844 221.160156 717.5625 C 237.746094 722.441406 251.777344 708.820312 255.652344 693.574219 C 260.761719 681.625 266.71875 670.054688 272.480469 658.410156 C 297.441406 611.027344 326.097656 565.679688 353.71875 519.816406 C 371.292969 490.933594 388.546875 461.867188 406.132812 433 C 416.0625 519.632812 426.351562 606.253906 442.101562 692.070312 C 445.980469 715.601562 448.988281 739.347656 454.324219 762.621094 C 455.8125 769.113281 460.695312 774.933594 466.347656 778.261719 C 478.359375 785.605469 495.277344 781.105469 502.164062 768.867188 C 509.75 756.417969 502.390625 742.476562 500.964844 729.328125 C 484.058594 636.476562 471.410156 544.035156 459.871094 450.875 C 530.46875 509.417969 600.609375 568.492188 670.175781 628.28125 C 699.589844 648.941406 736.820312 605.980469 690.332031 576.734375 C 620.296875 516.683594 549.792969 457.230469 478.632812 398.523438 C 524.980469 393.824219 570.769531 384.65625 617.042969 379.367188 C 662.742188 375.066406 708.363281 370.0625 753.953125 364.820312 C 784.582031 365.0625 790.589844 321.675781 761.492188 313.40625 Z M 761.492188 313.40625 " fill-opacity="1" fill-rule="nonzero"/></svg>