<svg xmlns="http://www.w3.org/2000/svg" xmlns:xlink="http://www.w3.org/1999/xlink" width="1080" zoomAndPan="magnify" viewBox="0 0 810 809.999993" height="1080" preserveAspectRatio="xMidYMid meet" version="1.0"><defs><clipPath id="06108d64d3"><path d="M 217 73 L 613 73 L 613 632 L 217 632 Z M 217 73 " clip-rule="nonzero"/></clipPath><clipPath id="19c4d46c79"><path d="M 517.539062 687.589844 L 165.410156 107.328125 L 283.386719 35.734375 L 635.515625 615.996094 Z M 517.539062 687.589844 " clip-rule="nonzero"/></clipPath><clipPath id="93d1a5ed34"><path d="M 517.539062 687.589844 L 165.410156 107.328125 L 283.386719 35.734375 L 635.515625 615.996094 Z M 517.539062 687.589844 " clip-rule="nonzero"/></clipPath><clipPath id="8a5bdf7ccf"><path d="M 517.539062 687.589844 L 165.410156 107.328125 L 283.386719 35.734375 L 635.515625 615.996094 Z M 517.539062 687.589844 " clip-rule="nonzero"/></clipPath></defs><g clip-path="url(#06108d64d3)"><g clip-path="url(#19c4d46c79)"><g clip-path="url(#93d1a5ed34)"><g clip-path="url(#8a5bdf7ccf)"><path fill="#ff743e" d="M 548.96875 483.679688 C 550.394531 492.652344 544.839844 502.082031 536.433594 505.414062 C 531.933594 507.125 527.375 508.6875 522.800781 510.164062 C 508.621094 514.914062 494.417969 519.554688 479.972656 523.449219 C 507.058594 542.882812 535.304688 560.589844 564.007812 577.503906 C 577.675781 586.1875 592.949219 592.566406 605.625 602.683594 C 616.574219 611.449219 614.296875 628.828125 599.707031 631.507812 C 594.683594 632.253906 589.839844 630.355469 585.292969 628.398438 C 563.53125 619.472656 543.207031 607.5 523.089844 595.378906 C 500.09375 582.175781 478.066406 567.445312 456.296875 552.320312 C 449.515625 547.664062 442.710938 543.070312 435.898438 538.449219 C 427.226562 533.328125 420.015625 526.707031 421.296875 515.671875 C 422.414062 504.78125 432.535156 498.5 442.121094 495.53125 C 458.785156 489.492188 476.175781 485.703125 493.007812 480.140625 C 459.710938 454.34375 429.332031 424.820312 394.382812 401.171875 C 388.15625 396.585938 380.207031 393.171875 377.019531 385.628906 C 371.996094 374.847656 378.515625 362.652344 388.589844 357.683594 C 396.941406 353.101562 405.761719 349.4375 414.449219 345.5625 C 380.425781 317.871094 346.535156 290.039062 312.667969 262.164062 C 307.527344 257.636719 301.769531 253.742188 297.171875 248.667969 C 291.546875 241.710938 290.90625 231.480469 296.179688 224.144531 C 299.191406 219.671875 303.890625 216.851562 308.714844 214.675781 C 315.550781 211.453125 322.527344 208.546875 329.601562 205.898438 C 309.792969 186.785156 289.632812 168.050781 269.523438 149.242188 C 261.511719 141.730469 253.492188 134.238281 245.453125 126.742188 C 238.050781 119.851562 230.695312 112.910156 223 106.335938 C 219.21875 103.097656 217.140625 97.738281 217.054688 92.855469 C 216.765625 76.191406 236.796875 67.402344 248.984375 78.773438 C 286.351562 112.261719 322.589844 147.082031 358.976562 181.652344 C 369.949219 192.394531 386.765625 206.5 377.46875 223.339844 C 370.96875 234.503906 356.464844 235.425781 345.640625 240.320312 C 380.484375 269.390625 413.515625 295.648438 448.03125 324.382812 C 453.835938 329.492188 460.351562 334.402344 463.636719 341.617188 C 467.191406 349.796875 465.101562 360.167969 457.9375 365.707031 C 449.316406 371.546875 439.664062 375.695312 430.25 380.078125 C 459.5 401.863281 486.199219 426.835938 514.929688 449.265625 C 522.164062 454.945312 529.796875 460.101562 536.882812 465.953125 C 542.5625 470.445312 548.027344 476.199219 548.96875 483.679688 Z M 548.96875 483.679688 " fill-opacity="1" fill-rule="nonzero"/></g></g></g></g></svg>