<svg xmlns="http://www.w3.org/2000/svg" xmlns:xlink="http://www.w3.org/1999/xlink" width="1080" zoomAndPan="magnify" viewBox="0 0 810 809.999993" height="1080" preserveAspectRatio="xMidYMid meet" version="1.0"><defs><clipPath id="0414dd3906"><path d="M 89 125 L 714.75 125 L 714.75 748 L 89 748 Z M 89 125 " clip-rule="nonzero"/></clipPath></defs><g clip-path="url(#0414dd3906)"><path fill="#e73c38" d="M 104.921875 361.949219 C 128.007812 360.210938 151.21875 366.898438 174.316406 368.347656 C 213.164062 371.558594 251.789062 376.460938 290.257812 382.746094 C 311.070312 386.335938 332.019531 388.808594 353.003906 390.859375 C 351.355469 388.398438 349.730469 385.921875 348.054688 383.472656 C 317.507812 338.6875 284.421875 288.339844 248.773438 245.167969 C 239.699219 233.882812 230.664062 222.507812 222.566406 210.484375 C 214.988281 200.785156 207.765625 185.375 219.816406 176.148438 C 238.414062 163.226562 250.273438 188.488281 260.972656 199.972656 C 301.257812 245.832031 337.332031 295.105469 371.703125 345.539062 C 383.363281 284.605469 398.050781 224.285156 408.1875 162.964844 C 410.652344 150.152344 409.113281 131.027344 424.523438 126.515625 C 432.363281 124.339844 441.261719 128.652344 444.261719 136.203125 C 446.222656 141.101562 446.035156 146.488281 446.046875 151.6875 C 445.859375 166.25 444.609375 180.785156 442.074219 195.125 C 432.835938 254.832031 419.335938 313.828125 409.089844 373.359375 C 417.0625 366.910156 425.035156 360.449219 433.023438 354.023438 C 493.605469 305.304688 553.464844 255.707031 614.996094 208.222656 C 622.746094 201.808594 628.972656 192.734375 638.558594 188.925781 C 656.558594 181.125 673.320312 203.535156 661.15625 218.410156 C 661.195312 218.410156 661.246094 218.410156 661.28125 218.410156 C 646.046875 237.59375 626.371094 252.308594 607.085938 267.15625 C 569.277344 297.265625 532.753906 328.964844 494.667969 358.761719 C 477.984375 372.285156 461.320312 385.859375 444.6875 399.445312 C 452.109375 400.285156 459.523438 401.195312 466.921875 402.21875 C 505.632812 407.644531 544.179688 414.183594 582.875 419.746094 C 614.109375 423.382812 641.082031 430.03125 672.90625 435.019531 C 685.582031 437.429688 701.714844 435.53125 710.914062 446.15625 C 710.902344 446.15625 710.902344 446.15625 710.890625 446.167969 C 713.992188 450.242188 715.089844 455.640625 713.804688 460.828125 C 711.878906 468.539062 704.777344 473.191406 697.242188 474.179688 C 675.09375 475.679688 652.832031 471.839844 631.058594 468.089844 C 573.875 459.316406 516.519531 451.46875 459.234375 443.28125 C 450.621094 442.105469 442 441.128906 433.363281 440.242188 C 469.183594 498.1875 505.195312 556.046875 538.964844 615.191406 C 546.128906 628.378906 552.777344 641.902344 559.113281 655.5 C 567.351562 669.527344 567.203125 688.824219 549.191406 694.25 C 535.554688 698.261719 524.015625 687.0625 520.828125 674.527344 C 516.628906 664.703125 511.730469 655.1875 506.992188 645.613281 C 486.46875 606.65625 462.910156 569.371094 440.199219 531.660156 C 425.75 507.914062 411.5625 484.015625 397.101562 460.277344 C 388.941406 531.511719 380.476562 602.730469 367.527344 673.289062 C 364.339844 692.636719 361.867188 712.160156 357.480469 731.296875 C 356.253906 736.632812 352.242188 741.421875 347.59375 744.15625 C 337.71875 750.195312 323.808594 746.496094 318.144531 736.433594 C 311.90625 726.195312 317.957031 714.734375 319.132812 703.921875 C 333.03125 627.578125 343.429688 551.570312 352.917969 474.976562 C 294.871094 523.113281 237.199219 571.683594 180.003906 620.84375 C 155.820312 637.828125 125.210938 602.503906 163.429688 578.457031 C 221.015625 529.085938 278.984375 480.203125 337.492188 431.929688 C 299.382812 428.070312 261.738281 420.53125 223.691406 416.183594 C 186.117188 412.644531 148.609375 408.53125 111.121094 404.21875 C 85.9375 404.421875 81 368.75 104.921875 361.949219 Z M 104.921875 361.949219 " fill-opacity="1" fill-rule="nonzero"/></g></svg>