<svg xmlns="http://www.w3.org/2000/svg" xmlns:xlink="http://www.w3.org/1999/xlink" width="1080" zoomAndPan="magnify" viewBox="0 0 810 809.999993" height="1080" preserveAspectRatio="xMidYMid meet" version="1.0"><defs><clipPath id="c5267b8771"><path d="M 51.484375 195 L 780 195 L 780 667.960938 L 51.484375 667.960938 Z M 51.484375 195 " clip-rule="nonzero"/></clipPath></defs><g clip-path="url(#c5267b8771)"><path fill="#2f3c7e" d="M 422.332031 240.863281 C 424.652344 239.625 427.902344 238.851562 432.238281 238.851562 C 438.117188 238.851562 447.097656 240.246094 458.085938 243.03125 C 478.515625 248.292969 506.996094 258.042969 535.78125 268.722656 C 539.652344 259.4375 543.523438 250.460938 547.390625 242.101562 C 556.832031 220.898438 565.65625 204.644531 571.382812 198.917969 C 575.714844 194.585938 585.3125 191.953125 592.121094 204.183594 C 598.160156 215.015625 608.375 250.769531 619.054688 276.460938 C 623.078125 286.214844 627.101562 295.964844 630.816406 305.5625 C 639.949219 309.121094 646.757812 311.75 650.164062 312.988281 C 688.394531 326.300781 728.789062 338.527344 766.246094 353.386719 C 768.722656 354.316406 773.054688 356.328125 775.222656 358.183594 C 777.234375 359.886719 778.320312 361.746094 778.9375 363.601562 C 780.484375 367.78125 780.175781 371.960938 776.152344 376.140625 C 774.757812 377.53125 771.507812 379.542969 766.710938 380.007812 C 760.675781 380.628906 748.292969 379.234375 745.96875 379.234375 C 715.015625 379.234375 689.011719 381.554688 660.6875 390.996094 C 670.128906 421.332031 678.023438 452.132812 684.988281 484.171875 C 685.144531 485.257812 686.382812 490.210938 687.464844 495.472656 C 687.929688 495.9375 688.238281 496.554688 688.703125 497.328125 C 689.167969 498.101562 691.644531 504.605469 693.035156 509.402344 C 693.964844 512.652344 694.273438 515.4375 694.273438 516.675781 C 693.964844 520.855469 692.109375 523.175781 690.558594 524.570312 C 688.546875 526.425781 686.226562 527.355469 683.285156 527.355469 L 682.667969 527.355469 C 680.65625 529.679688 677.714844 531.070312 674.464844 531.070312 C 671.832031 531.070312 668.425781 530.296875 664.710938 528.441406 C 659.757812 525.808594 653.105469 520.546875 645.367188 513.273438 C 625.246094 493.769531 596.609375 458.480469 571.847656 427.679688 C 532.070312 445.480469 490.898438 465.910156 463.65625 486.339844 C 463.964844 486.183594 464.429688 485.566406 464.429688 485.566406 C 464.429688 485.566406 459.632812 489.589844 456.539062 490.054688 C 454.679688 490.363281 452.046875 490.363281 448.488281 488.660156 C 443.382812 486.183594 441.988281 482.160156 442.605469 477.363281 C 442.761719 476.433594 443.226562 472.566406 447.714844 469.625 C 448.023438 469.316406 450.65625 468.078125 451.894531 467.457031 C 470.003906 442.539062 479.132812 407.402344 491.050781 379.390625 C 493.683594 373.351562 497.554688 363.449219 502.351562 351.375 C 485.171875 336.363281 468.144531 321.039062 452.824219 304.324219 C 437.035156 286.988281 423.878906 271.199219 418.925781 262.53125 C 415.832031 257.117188 415.210938 252.78125 415.519531 250.304688 C 416.296875 245.660156 418.617188 242.722656 422.332031 240.863281 Z M 599.085938 284.820312 C 591.347656 266.246094 584.074219 242.257812 578.347656 226.933594 C 574.941406 233.433594 571.074219 241.792969 566.894531 251.078125 C 563.332031 258.972656 559.617188 267.484375 555.902344 276.308594 C 572.621094 282.652344 589.027344 289.15625 603.265625 294.726562 C 601.871094 291.476562 600.480469 288.070312 599.085938 284.820312 Z M 717.800781 358.496094 C 692.882812 349.828125 667.652344 341.933594 643.199219 333.421875 C 642.578125 333.265625 641.804688 332.957031 641.03125 332.648438 C 645.519531 345.183594 650.007812 357.71875 654.03125 370.414062 C 675.546875 363.292969 695.976562 359.886719 717.800781 358.496094 Z M 645.210938 482.007812 C 653.257812 490.828125 660.535156 498.414062 666.722656 503.675781 C 665.175781 496.863281 664.09375 490.363281 663.785156 488.660156 C 657.128906 457.707031 649.390625 427.988281 640.414062 398.738281 C 625.863281 404.617188 609.300781 411.429688 591.96875 418.859375 C 609.613281 440.679688 628.804688 464.050781 645.210938 482.007812 Z M 578.039062 401.367188 C 598.160156 392.699219 617.351562 384.804688 633.910156 377.996094 C 627.875 359.421875 621.21875 340.851562 614.101562 322.121094 C 596.144531 315.003906 572.308594 305.5625 547.699219 296.121094 C 540.890625 312.988281 534.082031 330.015625 528.199219 345.027344 C 531.605469 347.96875 535.007812 351.066406 538.414062 354.160156 C 544.449219 359.578125 559.617188 378.460938 578.039062 401.367188 Z M 488.574219 444.859375 C 509.933594 432.789062 534.082031 421.179688 557.917969 410.34375 C 542.128906 390.6875 529.4375 375.054688 524.019531 370.257812 L 519.6875 366.386719 C 516.125 375.363281 513.1875 382.792969 511.019531 387.746094 C 503.433594 405.390625 496.78125 425.824219 488.574219 444.859375 Z M 468.917969 289.617188 C 481.921875 303.859375 496.316406 317.167969 510.863281 330.015625 C 515.972656 316.859375 521.699219 302.621094 527.425781 288.535156 C 509.316406 281.878906 491.363281 275.535156 475.574219 270.425781 C 464.429688 266.867188 454.371094 264.082031 446.167969 262.222656 C 452.359375 270.117188 460.714844 280.488281 468.917969 289.617188 Z M 51.640625 487.113281 C 51.484375 483.398438 52.570312 479.375 55.972656 474.886719 C 65.570312 462.039062 87.394531 454.148438 115.097656 451.050781 C 133.980469 448.882812 155.960938 448.882812 177.628906 449.65625 C 181.960938 424.738281 185.988281 402.140625 189.703125 385.425781 C 192.488281 372.578125 195.273438 362.984375 197.75 357.71875 C 200.226562 352.613281 203.167969 349.980469 205.488281 348.898438 C 208.429688 347.503906 212.144531 346.886719 216.167969 349.363281 C 217.253906 349.980469 218.953125 351.21875 220.347656 353.230469 C 222.203125 355.707031 224.679688 360.507812 224.992188 361.28125 C 231.644531 374.4375 237.527344 386.664062 246.503906 398.425781 C 261.054688 417.464844 274.054688 436.964844 286.28125 456.933594 C 305.628906 456.3125 363.363281 452.753906 385.03125 459.410156 C 398.960938 463.589844 402.828125 472.566406 399.890625 481.234375 C 399.425781 482.472656 398.652344 484.171875 397.101562 486.03125 C 395.398438 488.042969 391.222656 491.292969 385.496094 495.164062 C 371.875 504.140625 347.109375 518.070312 326.988281 529.367188 C 334.261719 542.988281 341.539062 556.765625 348.96875 570.695312 C 365.839844 602.269531 380.078125 633.535156 382.398438 638.484375 L 382.554688 638.796875 C 382.707031 639.261719 382.863281 639.570312 383.019531 640.035156 C 383.171875 640.652344 383.328125 640.960938 383.484375 641.117188 C 383.636719 641.582031 380.695312 645.761719 376.828125 649.011719 C 379.304688 651.488281 380.078125 654.117188 380.230469 655.976562 C 380.542969 658.453125 379.921875 660.773438 378.53125 662.941406 C 377.601562 664.335938 375.28125 668.046875 368.3125 668.046875 C 365.683594 668.046875 363.207031 667.121094 361.347656 665.570312 C 353.457031 665.570312 348.347656 664.953125 338.90625 660.929688 C 320.179688 652.878906 303.460938 642.199219 285.972656 631.367188 C 265.078125 618.210938 244.183594 604.125 222.667969 591.125 C 215.859375 595.148438 208.894531 599.328125 202.238281 603.660156 C 184.285156 615.425781 170.046875 631.675781 152.554688 643.4375 L 151.164062 644.832031 C 150.699219 645.296875 150.386719 645.761719 149.925781 646.226562 C 144.351562 651.953125 138.933594 649.476562 138.78125 649.320312 C 136.457031 648.546875 134.601562 647.308594 133.363281 645.605469 C 132.125 643.902344 131.042969 641.738281 131.042969 638.640625 C 131.042969 637.867188 131.042969 635.546875 133.207031 632.757812 C 133.363281 632.605469 133.980469 631.832031 134.910156 631.058594 L 134.753906 631.210938 C 136.769531 629.199219 138.625 625.640625 140.484375 620.839844 C 144.351562 611.710938 147.910156 599.328125 151.625 584.777344 C 153.636719 576.421875 155.804688 567.445312 157.664062 558.003906 C 124.851562 544.382812 86.15625 530.140625 61.855469 505.996094 C 56.285156 499.652344 51.796875 493.613281 51.640625 487.113281 Z M 380.542969 636.011719 C 377.136719 632.296875 373.421875 632.449219 371.410156 632.757812 C 374.816406 632.296875 378.21875 633.535156 380.542969 636.011719 Z M 362.125 643.75 C 361.96875 641.425781 362.742188 639.261719 363.980469 637.402344 C 362.742188 638.949219 361.8125 641.117188 361.96875 643.75 Z M 229.167969 411.429688 C 222.359375 402.449219 216.941406 393.320312 211.988281 383.722656 C 209.824219 393.164062 207.347656 405.238281 204.871094 418.859375 C 203.011719 428.761719 201.15625 439.597656 199.144531 450.742188 C 222.050781 452.132812 243.410156 454.148438 259.816406 455.539062 C 250.21875 440.527344 240.160156 425.824219 229.167969 411.429688 Z M 363.515625 483.089844 C 365.992188 481.542969 368.625 479.839844 371.101562 478.292969 C 370.480469 478.136719 370.015625 478.136719 369.550781 477.980469 C 349.742188 475.351562 318.632812 476.589844 298.511719 477.519531 C 304.699219 488.199219 310.738281 499.1875 316.773438 510.019531 C 332.097656 501.507812 350.050781 491.292969 363.515625 483.089844 Z M 297.273438 612.792969 C 313.679688 623.164062 329.464844 633.222656 347.265625 640.960938 C 352.992188 643.4375 356.394531 643.75 361.039062 643.902344 C 356.394531 633.84375 344.015625 607.375 329.773438 580.753906 C 322.34375 566.980469 315.226562 553.359375 308.105469 539.894531 C 302.535156 543.144531 298.355469 545.464844 296.496094 546.859375 C 279.628906 558.777344 261.671875 568.835938 243.71875 578.898438 C 261.828125 589.886719 279.628906 601.804688 297.273438 612.792969 Z M 222.824219 565.894531 C 243.5625 554.132812 264.613281 542.832031 284.117188 529.058594 C 286.128906 527.664062 291.234375 524.726562 297.890625 520.855469 C 289.996094 506.460938 282.105469 492.066406 273.589844 477.980469 C 256.566406 476.898438 227.003906 473.648438 195.429688 471.792969 C 191.25 495.78125 186.914062 520.855469 182.273438 544.382812 C 196.046875 550.882812 209.511719 558.15625 222.824219 565.894531 Z M 190.320312 585.242188 C 193.878906 582.921875 197.59375 580.597656 201.308594 578.277344 C 193.570312 573.945312 185.675781 569.921875 177.785156 566.050781 C 175.308594 577.8125 172.675781 588.804688 170.046875 598.707031 L 169.269531 601.648438 C 175.925781 595.921875 182.738281 590.195312 190.320312 585.242188 Z M 77.023438 490.054688 C 98.539062 511.414062 132.28125 523.949219 161.839844 535.867188 C 166.019531 514.820312 169.890625 492.375 173.605469 470.863281 C 153.949219 470.242188 134.445312 470.554688 117.265625 472.410156 C 106.121094 473.648438 96.214844 475.507812 88.011719 478.445312 C 82.132812 480.613281 77.179688 483.089844 73.929688 486.648438 C 74.855469 487.734375 76.25 489.125 77.023438 490.054688 Z M 77.023438 490.054688 " fill-opacity="1" fill-rule="nonzero"/></g></svg>