<svg xmlns="http://www.w3.org/2000/svg" xmlns:xlink="http://www.w3.org/1999/xlink" width="1080" zoomAndPan="magnify" viewBox="0 0 810 809.999993" height="1080" preserveAspectRatio="xMidYMid meet" version="1.0"><defs><clipPath id="78c2efcfe6"><path d="M 69 113 L 767.578125 113 L 767.578125 567.105469 L 69 567.105469 Z M 69 113 " clip-rule="nonzero"/></clipPath></defs><g clip-path="url(#78c2efcfe6)"><path fill="#2f3c7e" d="M 411.96875 157.484375 C 409.746094 156.296875 406.628906 155.554688 402.472656 155.554688 C 396.835938 155.554688 388.226562 156.890625 377.691406 159.5625 C 358.101562 164.605469 330.796875 173.957031 303.195312 184.195312 C 299.484375 175.292969 295.773438 166.683594 292.066406 158.671875 C 283.011719 138.339844 274.554688 122.757812 269.0625 117.269531 C 264.910156 113.113281 255.707031 110.589844 249.179688 122.3125 C 243.390625 132.703125 233.597656 166.980469 223.355469 191.613281 C 219.5 200.964844 215.640625 210.3125 212.078125 219.515625 C 203.324219 222.925781 196.792969 225.449219 193.527344 226.636719 C 156.875 239.398438 118.144531 251.121094 82.230469 265.367188 C 79.855469 266.257812 75.703125 268.1875 73.625 269.96875 C 71.695312 271.601562 70.65625 273.382812 70.0625 275.164062 C 68.578125 279.167969 68.875 283.175781 72.734375 287.183594 C 74.070312 288.519531 77.183594 290.449219 81.785156 290.894531 C 87.574219 291.488281 99.445312 290.152344 101.671875 290.152344 C 131.351562 290.152344 156.28125 292.378906 183.4375 301.429688 C 174.386719 330.515625 166.816406 360.046875 160.140625 390.765625 C 159.992188 391.804688 158.804688 396.550781 157.765625 401.597656 C 157.320312 402.042969 157.023438 402.636719 156.578125 403.378906 C 156.132812 404.121094 153.757812 410.351562 152.421875 414.953125 C 151.53125 418.070312 151.234375 420.742188 151.234375 421.929688 C 151.53125 425.933594 153.3125 428.160156 154.796875 429.496094 C 156.726562 431.277344 158.953125 432.167969 161.773438 432.167969 L 162.367188 432.167969 C 164.296875 434.394531 167.113281 435.730469 170.230469 435.730469 C 172.753906 435.730469 176.019531 434.988281 179.578125 433.207031 C 184.328125 430.683594 190.710938 425.636719 198.128906 418.664062 C 217.421875 399.964844 244.875 366.128906 268.617188 336.601562 C 306.757812 353.664062 346.230469 373.253906 372.347656 392.84375 C 372.050781 392.695312 371.605469 392.101562 371.605469 392.101562 C 371.605469 392.101562 376.207031 395.957031 379.175781 396.402344 C 380.957031 396.699219 383.476562 396.699219 386.890625 395.066406 C 391.789062 392.695312 393.125 388.835938 392.53125 384.234375 C 392.382812 383.34375 391.9375 379.636719 387.632812 376.816406 C 387.335938 376.519531 384.8125 375.332031 383.625 374.738281 C 366.265625 350.847656 357.507812 317.160156 346.082031 290.300781 C 343.558594 284.511719 339.847656 275.015625 335.25 263.441406 C 351.722656 249.046875 368.046875 234.355469 382.738281 218.328125 C 397.871094 201.707031 410.488281 186.570312 415.234375 178.257812 C 418.203125 173.066406 418.796875 168.910156 418.5 166.535156 C 417.757812 162.085938 415.53125 159.265625 411.96875 157.484375 Z M 242.5 199.628906 C 249.921875 181.820312 256.894531 158.820312 262.386719 144.128906 C 265.652344 150.359375 269.359375 158.375 273.367188 167.277344 C 276.78125 174.847656 280.34375 183.007812 283.902344 191.464844 C 267.875 197.550781 252.144531 203.785156 238.492188 209.125 C 239.828125 206.007812 241.164062 202.746094 242.5 199.628906 Z M 128.679688 270.265625 C 152.570312 261.957031 176.761719 254.386719 200.207031 246.226562 C 200.800781 246.078125 201.542969 245.78125 202.285156 245.484375 C 197.980469 257.503906 193.675781 269.523438 189.820312 281.691406 C 169.191406 274.867188 149.605469 271.601562 128.679688 270.265625 Z M 198.277344 388.6875 C 190.5625 397.144531 183.585938 404.417969 177.652344 409.464844 C 179.132812 402.933594 180.171875 396.699219 180.46875 395.066406 C 186.851562 365.390625 194.269531 336.894531 202.878906 308.847656 C 216.828125 314.488281 232.707031 321.019531 249.328125 328.140625 C 232.410156 349.066406 214.007812 371.472656 198.277344 388.6875 Z M 262.683594 311.371094 C 243.390625 303.0625 224.988281 295.492188 209.109375 288.964844 C 214.898438 271.15625 221.28125 253.347656 228.105469 235.390625 C 245.320312 228.566406 268.171875 219.515625 291.769531 210.460938 C 298.296875 226.636719 304.828125 242.960938 310.464844 257.355469 C 307.203125 260.175781 303.9375 263.144531 300.671875 266.109375 C 294.886719 271.304688 280.34375 289.410156 262.683594 311.371094 Z M 348.457031 353.070312 C 327.976562 341.496094 304.828125 330.367188 281.972656 319.980469 C 297.109375 301.132812 309.28125 286.144531 314.472656 281.542969 L 318.628906 277.835938 C 322.042969 286.441406 324.859375 293.5625 326.9375 298.3125 C 334.210938 315.230469 340.589844 334.820312 348.457031 353.070312 Z M 367.304688 204.230469 C 354.835938 217.882812 341.035156 230.644531 327.085938 242.960938 C 322.191406 230.347656 316.699219 216.695312 311.207031 203.191406 C 328.570312 196.808594 345.785156 190.726562 360.921875 185.828125 C 371.605469 182.414062 381.253906 179.742188 389.117188 177.960938 C 383.179688 185.53125 375.167969 195.472656 367.304688 204.230469 Z M 767.382812 393.585938 C 767.53125 390.023438 766.492188 386.164062 763.226562 381.859375 C 754.027344 369.542969 733.101562 361.976562 706.539062 359.007812 C 688.433594 356.929688 667.363281 356.929688 646.585938 357.671875 C 642.433594 333.78125 638.574219 312.113281 635.011719 296.085938 C 632.339844 283.769531 629.671875 274.570312 627.296875 269.523438 C 624.921875 264.625 622.101562 262.105469 619.875 261.066406 C 617.054688 259.730469 613.496094 259.136719 609.636719 261.511719 C 608.597656 262.105469 606.964844 263.292969 605.628906 265.21875 C 603.847656 267.59375 601.472656 272.195312 601.175781 272.9375 C 594.796875 285.550781 589.15625 297.273438 580.550781 308.550781 C 566.601562 326.804688 554.136719 345.503906 542.414062 364.648438 C 523.863281 364.054688 468.511719 360.640625 447.734375 367.019531 C 434.378906 371.027344 430.667969 379.636719 433.488281 387.945312 C 433.933594 389.132812 434.675781 390.765625 436.160156 392.546875 C 437.792969 394.476562 441.796875 397.589844 447.289062 401.300781 C 460.347656 409.90625 484.09375 423.265625 503.382812 434.097656 C 496.410156 447.15625 489.433594 460.363281 482.3125 473.71875 C 466.136719 503.992188 452.484375 533.96875 450.257812 538.71875 L 450.109375 539.015625 C 449.960938 539.460938 449.8125 539.757812 449.664062 540.203125 C 449.515625 540.792969 449.367188 541.089844 449.21875 541.238281 C 449.070312 541.683594 451.890625 545.691406 455.597656 548.808594 C 453.226562 551.183594 452.484375 553.707031 452.335938 555.484375 C 452.039062 557.859375 452.632812 560.085938 453.96875 562.164062 C 454.859375 563.5 457.082031 567.0625 463.761719 567.0625 C 466.285156 567.0625 468.660156 566.171875 470.4375 564.6875 C 478.007812 564.6875 482.90625 564.09375 491.957031 560.234375 C 509.914062 552.519531 525.941406 542.277344 542.710938 531.890625 C 562.742188 519.277344 582.777344 505.773438 603.402344 493.308594 C 609.933594 497.164062 616.609375 501.171875 622.992188 505.328125 C 640.207031 516.605469 653.859375 532.1875 670.628906 543.464844 L 671.964844 544.800781 C 672.410156 545.246094 672.707031 545.691406 673.152344 546.136719 C 678.492188 551.628906 683.6875 549.253906 683.835938 549.105469 C 686.0625 548.363281 687.84375 547.175781 689.027344 545.542969 C 690.214844 543.910156 691.253906 541.832031 691.253906 538.867188 C 691.253906 538.125 691.253906 535.898438 689.175781 533.226562 C 689.027344 533.078125 688.433594 532.335938 687.546875 531.59375 L 687.695312 531.742188 C 685.765625 529.8125 683.984375 526.398438 682.203125 521.800781 C 678.492188 513.042969 675.078125 501.171875 671.519531 487.222656 C 669.589844 479.210938 667.511719 470.601562 665.730469 461.550781 C 697.191406 448.492188 734.289062 434.839844 757.589844 411.6875 C 762.929688 405.605469 767.234375 399.816406 767.382812 393.585938 Z M 452.039062 536.34375 C 455.304688 532.78125 458.863281 532.929688 460.792969 533.226562 C 457.527344 532.78125 454.265625 533.96875 452.039062 536.34375 Z M 469.699219 543.761719 C 469.847656 541.535156 469.105469 539.460938 467.917969 537.679688 C 469.105469 539.164062 469.992188 541.238281 469.847656 543.761719 Z M 597.171875 321.019531 C 603.699219 312.410156 608.894531 303.65625 613.644531 294.453125 C 615.722656 303.507812 618.09375 315.082031 620.46875 328.140625 C 622.25 337.636719 624.03125 348.027344 625.960938 358.710938 C 603.996094 360.046875 583.519531 361.976562 567.789062 363.3125 C 576.988281 348.917969 586.632812 334.820312 597.171875 321.019531 Z M 468.363281 389.726562 C 465.988281 388.242188 463.464844 386.609375 461.089844 385.125 C 461.683594 384.976562 462.128906 384.976562 462.574219 384.828125 C 481.570312 382.304688 511.398438 383.492188 530.6875 384.382812 C 524.753906 394.625 518.964844 405.160156 513.179688 415.546875 C 498.488281 407.386719 481.273438 397.589844 468.363281 389.726562 Z M 531.875 514.082031 C 516.144531 524.027344 501.007812 533.671875 483.945312 541.089844 C 478.453125 543.464844 475.1875 543.761719 470.734375 543.910156 C 475.1875 534.265625 487.058594 508.890625 500.710938 483.363281 C 507.835938 470.15625 514.660156 457.097656 521.488281 444.1875 C 526.832031 447.304688 530.835938 449.53125 532.617188 450.867188 C 548.792969 462.292969 566.007812 471.9375 583.222656 481.585938 C 565.859375 492.121094 548.792969 503.546875 531.875 514.082031 Z M 603.253906 469.117188 C 583.371094 457.839844 563.1875 447.007812 544.488281 433.800781 C 542.5625 432.464844 537.664062 429.644531 531.28125 425.933594 C 538.851562 412.132812 546.417969 398.332031 554.582031 384.828125 C 570.90625 383.789062 599.25 380.671875 629.523438 378.894531 C 633.527344 401.894531 637.683594 425.933594 642.136719 448.492188 C 628.929688 454.722656 616.015625 461.699219 603.253906 469.117188 Z M 634.417969 487.667969 C 631.003906 485.441406 627.445312 483.214844 623.882812 480.992188 C 631.300781 476.835938 638.871094 472.976562 646.4375 469.265625 C 648.8125 480.546875 651.335938 491.082031 653.859375 500.578125 L 654.601562 503.398438 C 648.21875 497.90625 641.691406 492.417969 634.417969 487.667969 Z M 743.046875 396.402344 C 722.417969 416.882812 690.066406 428.902344 661.722656 440.328125 C 657.71875 420.148438 654.007812 398.628906 650.445312 378.003906 C 669.292969 377.410156 687.992188 377.707031 704.460938 379.488281 C 715.148438 380.671875 724.644531 382.453125 732.507812 385.273438 C 738.148438 387.351562 742.898438 389.726562 746.015625 393.140625 C 745.125 394.179688 743.789062 395.511719 743.046875 396.402344 Z M 743.046875 396.402344 " fill-opacity="1" fill-rule="nonzero"/></g></svg>