<svg xmlns="http://www.w3.org/2000/svg" xmlns:xlink="http://www.w3.org/1999/xlink" width="1080" zoomAndPan="magnify" viewBox="0 0 810 809.999993" height="1080" preserveAspectRatio="xMidYMid meet" version="1.0"><defs><clipPath id="331eebd68e"><path d="M 32 175 L 778.660156 175 L 778.660156 660.472656 L 32 660.472656 Z M 32 175 " clip-rule="nonzero"/></clipPath></defs><g clip-path="url(#331eebd68e)"><path fill="#ffd058" d="M 398.496094 222.566406 C 396.121094 221.300781 392.789062 220.507812 388.351562 220.507812 C 382.328125 220.507812 373.132812 221.933594 361.878906 224.789062 C 340.949219 230.175781 311.78125 240.164062 282.296875 251.101562 C 278.332031 241.589844 274.367188 232.398438 270.40625 223.835938 C 260.734375 202.117188 251.699219 185.472656 245.832031 179.605469 C 241.394531 175.167969 231.566406 172.472656 224.589844 184.996094 C 218.40625 196.09375 207.945312 232.714844 197.007812 259.03125 C 192.886719 269.015625 188.761719 279.003906 184.957031 288.832031 C 175.605469 292.480469 168.628906 295.175781 165.140625 296.441406 C 125.984375 310.074219 84.609375 322.601562 46.246094 337.820312 C 43.710938 338.769531 39.269531 340.832031 37.050781 342.734375 C 34.988281 344.476562 33.878906 346.378906 33.246094 348.28125 C 31.660156 352.5625 31.976562 356.84375 36.101562 361.121094 C 37.527344 362.550781 40.855469 364.609375 45.769531 365.085938 C 51.953125 365.71875 64.636719 364.292969 67.011719 364.292969 C 98.71875 364.292969 125.351562 366.671875 154.363281 376.339844 C 144.691406 407.414062 136.605469 438.960938 129.472656 471.777344 C 129.316406 472.886719 128.046875 477.957031 126.9375 483.347656 C 126.460938 483.824219 126.144531 484.457031 125.667969 485.25 C 125.191406 486.042969 122.65625 492.703125 121.230469 497.617188 C 120.277344 500.945312 119.960938 503.796875 119.960938 505.066406 C 120.277344 509.347656 122.179688 511.726562 123.765625 513.152344 C 125.828125 515.054688 128.207031 516.003906 131.21875 516.003906 L 131.851562 516.003906 C 133.914062 518.382812 136.925781 519.808594 140.253906 519.808594 C 142.949219 519.808594 146.4375 519.015625 150.242188 517.113281 C 155.3125 514.417969 162.128906 509.03125 170.058594 501.578125 C 190.664062 481.605469 219.992188 445.460938 245.359375 413.914062 C 286.101562 432.144531 328.269531 453.070312 356.171875 473.996094 C 355.851562 473.835938 355.378906 473.203125 355.378906 473.203125 C 355.378906 473.203125 360.292969 477.324219 363.460938 477.800781 C 365.363281 478.117188 368.058594 478.117188 371.707031 476.371094 C 376.9375 473.835938 378.363281 469.714844 377.730469 464.800781 C 377.570312 463.847656 377.097656 459.886719 372.5 456.875 C 372.179688 456.558594 369.488281 455.289062 368.21875 454.65625 C 349.671875 429.132812 340.316406 393.144531 328.109375 364.453125 C 325.414062 358.269531 321.453125 348.121094 316.539062 335.757812 C 334.132812 320.378906 351.574219 304.6875 367.265625 287.566406 C 383.4375 269.808594 396.910156 253.640625 401.984375 244.761719 C 405.15625 239.214844 405.789062 234.773438 405.472656 232.238281 C 404.679688 227.480469 402.300781 224.46875 398.496094 222.566406 Z M 217.457031 267.589844 C 225.382812 248.566406 232.835938 223.996094 238.699219 208.300781 C 242.1875 214.957031 246.152344 223.519531 250.429688 233.03125 C 254.078125 241.117188 257.882812 249.835938 261.6875 258.871094 C 244.566406 265.371094 227.761719 272.027344 213.175781 277.734375 C 214.601562 274.40625 216.03125 270.917969 217.457031 267.589844 Z M 95.863281 343.050781 C 121.386719 334.171875 147.230469 326.085938 172.277344 317.367188 C 172.910156 317.210938 173.703125 316.894531 174.496094 316.574219 C 169.898438 329.417969 165.300781 342.257812 161.179688 355.257812 C 139.144531 347.964844 118.21875 344.476562 95.863281 343.050781 Z M 170.214844 469.554688 C 161.972656 478.59375 154.519531 486.359375 148.179688 491.75 C 149.765625 484.773438 150.875 478.117188 151.191406 476.371094 C 158.007812 444.667969 165.933594 414.230469 175.128906 384.265625 C 190.03125 390.292969 206.992188 397.265625 224.75 404.875 C 206.675781 427.230469 187.019531 451.167969 170.214844 469.554688 Z M 239.015625 386.960938 C 218.40625 378.085938 198.75 370 181.789062 363.023438 C 187.96875 344 194.789062 324.976562 202.078125 305.796875 C 220.46875 298.503906 244.882812 288.832031 270.089844 279.164062 C 277.0625 296.441406 284.039062 313.878906 290.0625 329.257812 C 286.574219 332.269531 283.089844 335.441406 279.601562 338.609375 C 273.417969 344.160156 257.882812 363.5 239.015625 386.960938 Z M 330.648438 431.507812 C 308.769531 419.144531 284.039062 407.253906 259.625 396.15625 C 275.796875 376.023438 288.796875 360.011719 294.34375 355.097656 L 298.78125 351.136719 C 302.429688 360.328125 305.441406 367.9375 307.660156 373.011719 C 315.429688 391.085938 322.246094 412.011719 330.648438 431.507812 Z M 350.78125 272.503906 C 337.464844 287.089844 322.71875 300.722656 307.820312 313.878906 C 302.585938 300.40625 296.722656 285.820312 290.855469 271.394531 C 309.402344 264.578125 327.792969 258.078125 343.964844 252.847656 C 355.378906 249.199219 365.683594 246.347656 374.082031 244.445312 C 367.742188 252.53125 359.183594 263.152344 350.78125 272.503906 Z M 778.175781 474.789062 C 778.332031 470.984375 777.222656 466.859375 773.734375 462.265625 C 763.90625 449.105469 741.554688 441.019531 713.175781 437.851562 C 693.835938 435.632812 671.324219 435.632812 649.132812 436.421875 C 644.691406 410.898438 640.570312 387.753906 636.765625 370.632812 C 633.914062 357.476562 631.058594 347.648438 628.523438 342.257812 C 625.988281 337.027344 622.972656 334.332031 620.597656 333.222656 C 617.585938 331.792969 613.78125 331.160156 609.65625 333.695312 C 608.546875 334.332031 606.804688 335.597656 605.378906 337.660156 C 603.476562 340.195312 600.9375 345.109375 600.621094 345.902344 C 593.804688 359.378906 587.78125 371.902344 578.585938 383.949219 C 563.683594 403.449219 550.367188 423.425781 537.84375 443.875 C 518.027344 443.242188 458.898438 439.59375 436.703125 446.410156 C 422.433594 450.691406 418.472656 459.886719 421.484375 468.761719 C 421.960938 470.03125 422.753906 471.777344 424.335938 473.679688 C 426.082031 475.738281 430.363281 479.066406 436.226562 483.03125 C 450.175781 492.226562 475.542969 506.492188 496.152344 518.066406 C 488.699219 532.015625 481.25 546.125 473.640625 560.394531 C 456.359375 592.734375 441.777344 624.757812 439.398438 629.828125 L 439.238281 630.144531 C 439.082031 630.621094 438.921875 630.9375 438.761719 631.414062 C 438.605469 632.046875 438.445312 632.367188 438.289062 632.523438 C 438.128906 633 441.140625 637.28125 445.105469 640.609375 C 442.566406 643.144531 441.777344 645.839844 441.617188 647.742188 C 441.300781 650.277344 441.933594 652.65625 443.359375 654.875 C 444.3125 656.304688 446.691406 660.109375 453.824219 660.109375 C 456.519531 660.109375 459.054688 659.15625 460.957031 657.570312 C 469.042969 657.570312 474.273438 656.9375 483.945312 652.816406 C 503.125 644.570312 520.246094 633.632812 538.160156 622.535156 C 559.5625 609.0625 580.964844 594.636719 603 581.320312 C 609.976562 585.441406 617.109375 589.722656 623.925781 594.160156 C 642.316406 606.207031 656.898438 622.855469 674.8125 634.902344 L 676.238281 636.328125 C 676.714844 636.804688 677.03125 637.28125 677.507812 637.753906 C 683.214844 643.621094 688.765625 641.085938 688.921875 640.925781 C 691.300781 640.132812 693.203125 638.863281 694.472656 637.121094 C 695.738281 635.378906 696.847656 633.15625 696.847656 629.988281 C 696.847656 629.195312 696.847656 626.816406 694.628906 623.964844 C 694.472656 623.804688 693.835938 623.011719 692.886719 622.21875 L 693.042969 622.378906 C 690.984375 620.316406 689.082031 616.671875 687.179688 611.757812 C 683.214844 602.402344 679.570312 589.722656 675.765625 574.820312 C 673.703125 566.257812 671.484375 557.0625 669.582031 547.394531 C 703.191406 533.441406 742.820312 518.859375 767.710938 494.128906 C 773.417969 487.628906 778.015625 481.445312 778.175781 474.789062 Z M 441.300781 627.292969 C 444.789062 623.488281 448.59375 623.644531 450.652344 623.964844 C 447.164062 623.488281 443.679688 624.757812 441.300781 627.292969 Z M 460.164062 635.21875 C 460.324219 632.839844 459.53125 630.621094 458.261719 628.71875 C 459.53125 630.304688 460.480469 632.523438 460.324219 635.21875 Z M 596.339844 397.265625 C 603.316406 388.070312 608.867188 378.71875 613.9375 368.890625 C 616.15625 378.558594 618.695312 390.925781 621.230469 404.875 C 623.132812 415.023438 625.035156 426.117188 627.097656 437.535156 C 603.632812 438.960938 581.757812 441.019531 564.953125 442.449219 C 574.78125 427.070312 585.085938 412.011719 596.339844 397.265625 Z M 458.738281 470.664062 C 456.203125 469.082031 453.507812 467.335938 450.96875 465.75 C 451.605469 465.59375 452.078125 465.59375 452.554688 465.433594 C 472.847656 462.738281 504.710938 464.007812 525.320312 464.957031 C 518.980469 475.898438 512.796875 487.152344 506.613281 498.25 C 490.917969 489.53125 472.53125 479.066406 458.738281 470.664062 Z M 526.589844 603.511719 C 509.785156 614.132812 493.613281 624.4375 475.382812 632.367188 C 469.519531 634.902344 466.03125 635.21875 461.273438 635.378906 C 466.03125 625.074219 478.714844 597.964844 493.296875 570.699219 C 500.90625 556.589844 508.199219 542.636719 515.492188 528.847656 C 521.199219 532.175781 525.480469 534.554688 527.382812 535.980469 C 544.660156 548.1875 563.050781 558.492188 581.441406 568.796875 C 562.890625 580.050781 544.660156 592.257812 526.589844 603.511719 Z M 602.839844 555.480469 C 581.597656 543.429688 560.039062 531.859375 540.0625 517.75 C 538.003906 516.320312 532.769531 513.308594 525.953125 509.347656 C 534.039062 494.605469 542.125 479.859375 550.84375 465.433594 C 568.28125 464.324219 598.5625 460.996094 630.902344 459.09375 C 635.179688 483.664062 639.621094 509.347656 644.375 533.441406 C 630.265625 540.101562 616.472656 547.550781 602.839844 555.480469 Z M 636.132812 575.296875 C 632.484375 572.917969 628.679688 570.539062 624.875 568.160156 C 632.804688 563.722656 640.886719 559.601562 648.972656 555.636719 C 651.507812 567.6875 654.203125 578.941406 656.898438 589.085938 L 657.691406 592.097656 C 650.875 586.234375 643.898438 580.367188 636.132812 575.296875 Z M 752.175781 477.800781 C 730.140625 499.675781 695.582031 512.515625 665.300781 524.722656 C 661.019531 503.164062 657.058594 480.175781 653.253906 458.140625 C 673.386719 457.507812 693.359375 457.824219 710.957031 459.726562 C 722.371094 460.996094 732.519531 462.898438 740.917969 465.910156 C 746.945312 468.128906 752.015625 470.664062 755.347656 474.3125 C 754.394531 475.421875 752.96875 476.847656 752.175781 477.800781 Z M 752.175781 477.800781 " fill-opacity="1" fill-rule="nonzero"/></g></svg>