<?xml version="1.0" encoding="UTF-8"?>
<!DOCTYPE svg PUBLIC "-//W3C//DTD SVG 1.1//EN" "http://www.w3.org/Graphics/SVG/1.1/DTD/svg11.dtd">
<svg xmlns="http://www.w3.org/2000/svg" version="1.1" width="1080px" height="1080px" style="shape-rendering:geometricPrecision; text-rendering:geometricPrecision; image-rendering:optimizeQuality; fill-rule:evenodd; clip-rule:evenodd" xmlns:xlink="http://www.w3.org/1999/xlink">
<g><path style="opacity:1" fill="#fffefe" d="M -0.5,-0.5 C 359.5,-0.5 719.5,-0.5 1079.5,-0.5C 1079.5,359.5 1079.5,719.5 1079.5,1079.5C 719.5,1079.5 359.5,1079.5 -0.5,1079.5C -0.5,719.5 -0.5,359.5 -0.5,-0.5 Z"/></g>
<g><path style="opacity:1" fill="#fcc751" d="M 127.5,503.5 C 126.028,507.919 125.362,512.586 125.5,517.5C 123.564,526.93 122.564,536.596 122.5,546.5C 121.046,559.971 120.379,573.638 120.5,587.5C 120.5,596.007 120.834,604.34 121.5,612.5C 122.995,642.475 129.162,671.475 140,699.5C 167.411,765.802 210.245,819.969 268.5,862C 329.062,903.424 395.062,933.091 466.5,951C 510.924,958.209 555.591,960.543 600.5,958C 645.676,952.608 688.01,938.608 727.5,916C 808.442,870.057 869.942,805.557 912,722.5C 926.874,694.088 939.541,664.755 950,634.5C 956.986,608.918 961.486,582.918 963.5,556.5C 964.661,541.339 964.828,526.006 964,510.5C 963.802,508.618 963.302,506.952 962.5,505.5C 957.807,442.519 941.307,382.853 913,326.5C 897.489,303.319 880.822,280.986 863,259.5C 833.497,230.613 802.497,203.613 770,178.5C 760.235,160.377 763.068,144.544 778.5,131C 788.185,125.878 798.185,125.211 808.5,129C 814.834,132.165 820.834,135.831 826.5,140C 846.128,157.474 866.128,174.474 886.5,191C 894.333,198.833 902.167,206.667 910,214.5C 926.333,235.5 942.667,256.5 959,277.5C 976.516,306.199 990.516,336.532 1001,368.5C 1029.97,453.24 1035.97,539.574 1019,627.5C 990.12,732.488 937.287,822.988 860.5,899C 814.668,940.774 763.001,973.774 705.5,998C 661.994,1015.28 616.827,1024.11 570,1024.5C 529.926,1023.64 490.093,1020.14 450.5,1014C 373.872,994.511 302.872,962.844 237.5,919C 182.18,879.684 137.346,830.851 103,772.5C 88.4788,746.133 77.3121,718.466 69.5,689.5C 68.4533,683.98 67.12,678.646 65.5,673.5C 62.5324,662.028 60.5324,650.362 59.5,638.5C 59.6655,634.486 59.4988,630.486 59,626.5C 58.7679,625.263 58.2679,624.263 57.5,623.5C 50.1125,485.53 85.9458,360.197 165,247.5C 241.326,150.716 340.159,89.5495 461.5,64C 484.919,58.5969 508.585,54.5969 532.5,52C 585.047,50.0196 637.047,54.353 688.5,65C 709.455,70.3892 727.622,80.5559 743,95.5C 747.528,103.789 747.528,112.122 743,120.5C 738.27,127.116 731.77,130.449 723.5,130.5C 712.296,128.71 701.629,125.21 691.5,120C 682.29,117.446 672.956,115.446 663.5,114C 632.211,111.436 600.877,109.602 569.5,108.5C 537.592,108.985 506.259,113.485 475.5,122C 442.581,130.862 410.247,141.529 378.5,154C 270.187,206.651 195.021,289.484 153,402.5C 140.894,435.258 132.394,468.924 127.5,503.5 Z"/></g>
<g><path style="opacity:1" fill="#fcc752" d="M 507.5,359.5 C 506.028,363.919 505.362,368.586 505.5,373.5C 504.518,376.962 504.185,380.629 504.5,384.5C 502.969,389.25 502.302,394.25 502.5,399.5C 498.248,429.933 494.748,460.6 492,491.5C 487.481,506.939 477.148,515.272 461,516.5C 444.878,515.28 434.545,506.947 430,491.5C 428.932,482.514 429.765,473.847 432.5,465.5C 433.895,461.409 434.728,457.076 435,452.5C 435.333,452.833 435.667,453.167 436,453.5C 436.499,448.177 436.666,442.844 436.5,437.5C 441.007,408.79 445.841,380.123 451,351.5C 454.078,337.172 460.912,325.005 471.5,315C 489.252,306.909 501.752,311.743 509,329.5C 509.492,339.55 508.992,349.55 507.5,359.5 Z"/></g>
<g><path style="opacity:1" fill="#fcc752" d="M 702.5,451.5 C 701.111,456.269 700.444,461.269 700.5,466.5C 698.25,482.065 695.75,497.732 693,513.5C 686.171,529.505 674.005,536.671 656.5,535C 642.07,531.741 633.736,522.908 631.5,508.5C 631.838,498.807 632.505,489.14 633.5,479.5C 637.389,444.411 643.056,409.744 650.5,375.5C 652.375,369.431 653.375,363.098 653.5,356.5C 654.783,344.096 660.117,333.929 669.5,326C 688.73,317.172 703.897,321.672 715,339.5C 717.322,346.332 717.988,353.332 717,360.5C 711.281,390.701 706.448,421.034 702.5,451.5 Z"/></g>
<g><path style="opacity:1" fill="#fdd57e" d="M 653.5,356.5 C 653.375,363.098 652.375,369.431 650.5,375.5C 650.547,368.889 651.547,362.556 653.5,356.5 Z"/></g>
<g><path style="opacity:1" fill="#fef0d1" d="M 507.5,359.5 C 507.638,364.414 506.972,369.081 505.5,373.5C 505.362,368.586 506.028,363.919 507.5,359.5 Z"/></g>
<g><path style="opacity:1" fill="#feefce" d="M 504.5,384.5 C 504.698,389.75 504.031,394.75 502.5,399.5C 502.302,394.25 502.969,389.25 504.5,384.5 Z"/></g>
<g><path style="opacity:1" fill="#fdd376" d="M 436.5,437.5 C 436.666,442.844 436.499,448.177 436,453.5C 435.667,453.167 435.333,452.833 435,452.5C 434.728,457.076 433.895,461.409 432.5,465.5C 432.989,455.915 434.323,446.581 436.5,437.5 Z"/></g>
<g><path style="opacity:1" fill="#feeecb" d="M 702.5,451.5 C 702.698,456.75 702.031,461.75 700.5,466.5C 700.444,461.269 701.111,456.269 702.5,451.5 Z"/></g>
<g><path style="opacity:1" fill="#fdd888" d="M 633.5,479.5 C 632.505,489.14 631.838,498.807 631.5,508.5C 630.049,498.718 630.716,489.051 633.5,479.5 Z"/></g>
<g><path style="opacity:1" fill="#fef0d0" d="M 127.5,503.5 C 127.877,508.453 127.211,513.119 125.5,517.5C 125.362,512.586 126.028,507.919 127.5,503.5 Z"/></g>
<g><path style="opacity:1" fill="#fdd57f" d="M 962.5,505.5 C 963.302,506.952 963.802,508.618 964,510.5C 964.828,526.006 964.661,541.339 963.5,556.5C 963.69,539.485 963.357,522.485 962.5,505.5 Z"/></g>
<g><path style="opacity:1" fill="#feecc5" d="M 122.5,546.5 C 121.857,568.494 121.523,590.494 121.5,612.5C 120.834,604.34 120.5,596.007 120.5,587.5C 120.379,573.638 121.046,559.971 122.5,546.5 Z"/></g>
<g><path style="opacity:1" fill="#fcc751" d="M 359.5,629.5 C 358.529,620.333 357.862,611 357.5,601.5C 359.11,591.789 364.443,584.955 373.5,581C 389.663,575.504 402.163,580.004 411,594.5C 416.667,607.5 422.333,620.5 428,633.5C 453.564,674.059 490.064,698.892 537.5,708C 585.677,715.835 625.51,701.335 657,664.5C 666.773,652.727 675.773,640.394 684,627.5C 700.293,610.895 717.293,610.228 735,625.5C 742.932,635.491 744.599,646.491 740,658.5C 729.358,678.782 716.025,697.115 700,713.5C 662.847,753.817 616.68,774.15 561.5,774.5C 525.486,775.103 491.819,766.603 460.5,749C 417.723,726.556 386.223,693.39 366,649.5C 362.927,643.116 360.761,636.449 359.5,629.5 Z"/></g>
<g><path style="opacity:1" fill="#fdd273" d="M 357.5,601.5 C 357.862,611 358.529,620.333 359.5,629.5C 358.113,627.123 357.279,624.457 357,621.5C 356.179,614.654 356.346,607.987 357.5,601.5 Z"/></g>
<g><path style="opacity:1" fill="#fedb91" d="M 57.5,623.5 C 58.2679,624.263 58.7679,625.263 59,626.5C 59.4988,630.486 59.6655,634.486 59.5,638.5C 58.5135,633.68 57.8468,628.68 57.5,623.5 Z"/></g>
<g><path style="opacity:1" fill="#fdd887" d="M 65.5,673.5 C 67.12,678.646 68.4533,683.98 69.5,689.5C 66.9389,684.589 65.6056,679.256 65.5,673.5 Z"/></g>
</svg>
