<svg xmlns="http://www.w3.org/2000/svg" xmlns:xlink="http://www.w3.org/1999/xlink" width="1080" zoomAndPan="magnify" viewBox="0 0 810 809.999993" height="1080" preserveAspectRatio="xMidYMid meet" version="1.0"><defs><clipPath id="ee59fd2d68"><path d="M 41.050781 23 L 783 23 L 783 760 L 41.050781 760 Z M 41.050781 23 " clip-rule="nonzero"/></clipPath></defs><g clip-path="url(#ee59fd2d68)"><path fill="#ffffff" d="M 764.273438 303.238281 C 736.910156 301.179688 709.398438 309.105469 682.019531 310.824219 C 635.972656 314.632812 590.195312 320.441406 544.59375 327.890625 C 519.925781 332.144531 495.09375 335.078125 470.21875 337.507812 C 472.175781 334.589844 474.101562 331.65625 476.085938 328.75 C 512.296875 275.667969 551.511719 215.992188 593.765625 164.820312 C 604.519531 151.441406 615.234375 137.960938 624.832031 123.707031 C 633.8125 112.210938 642.375 93.941406 628.09375 83.007812 C 606.046875 67.691406 591.988281 97.632812 579.304688 111.246094 C 531.554688 165.605469 488.796875 224.007812 448.054688 283.785156 C 434.234375 211.5625 416.824219 140.0625 404.808594 67.378906 C 401.890625 52.195312 403.714844 29.527344 385.445312 24.175781 C 376.15625 21.601562 365.609375 26.710938 362.054688 35.660156 C 359.726562 41.46875 359.949219 47.851562 359.933594 54.015625 C 360.15625 71.277344 361.636719 88.503906 364.644531 105.5 C 375.59375 176.273438 391.59375 246.199219 403.742188 316.765625 C 394.292969 309.121094 384.839844 301.460938 375.371094 293.847656 C 303.5625 236.097656 232.613281 177.308594 159.675781 121.027344 C 150.488281 113.425781 143.113281 102.667969 131.75 98.152344 C 110.414062 88.90625 90.546875 115.46875 104.960938 133.101562 C 104.917969 133.101562 104.859375 133.101562 104.816406 133.101562 C 122.875 155.839844 146.195312 173.277344 169.054688 190.878906 C 213.871094 226.570312 257.160156 264.140625 302.304688 299.460938 C 322.082031 315.492188 341.832031 331.582031 361.550781 347.683594 C 352.75 348.679688 343.964844 349.757812 335.191406 350.972656 C 289.308594 357.402344 243.621094 365.152344 197.75 371.746094 C 160.726562 376.058594 128.757812 383.9375 91.035156 389.851562 C 76.011719 392.710938 56.886719 390.457031 45.984375 403.050781 C 45.996094 403.050781 45.996094 403.050781 46.011719 403.066406 C 42.339844 407.894531 41.035156 414.296875 42.558594 420.445312 C 44.84375 429.585938 53.257812 435.097656 62.191406 436.265625 C 88.445312 438.042969 114.828125 433.496094 140.636719 429.050781 C 208.417969 418.652344 276.40625 409.347656 344.304688 399.644531 C 354.511719 398.25 364.734375 397.09375 374.972656 396.042969 C 332.511719 464.726562 289.828125 533.308594 249.796875 603.414062 C 241.308594 619.042969 233.425781 635.074219 225.914062 651.191406 C 216.152344 667.816406 216.328125 690.691406 237.679688 697.121094 C 253.84375 701.875 267.515625 688.601562 271.292969 673.742188 C 276.273438 662.097656 282.078125 650.820312 287.695312 639.472656 C 312.023438 593.292969 339.949219 549.101562 366.867188 504.402344 C 383.996094 476.253906 400.808594 447.925781 417.953125 419.792969 C 427.625 504.222656 437.65625 588.640625 453.003906 672.273438 C 456.78125 695.207031 459.714844 718.351562 464.917969 741.03125 C 466.367188 747.359375 471.125 753.03125 476.636719 756.277344 C 488.339844 763.433594 504.828125 759.046875 511.539062 747.121094 C 518.933594 734.988281 511.761719 721.402344 510.371094 708.585938 C 493.894531 618.09375 481.570312 528.003906 470.324219 437.214844 C 539.125 494.269531 607.484375 551.839844 675.277344 610.109375 C 703.945312 630.242188 740.230469 588.375 694.925781 559.871094 C 626.671875 501.351562 557.957031 443.40625 488.605469 386.191406 C 533.777344 381.613281 578.402344 372.679688 623.5 367.523438 C 668.035156 363.332031 712.496094 358.457031 756.925781 353.34375 C 786.777344 353.582031 792.632812 311.300781 764.273438 303.238281 Z M 764.273438 303.238281 " fill-opacity="1" fill-rule="nonzero"/></g></svg>