<svg xmlns="http://www.w3.org/2000/svg" xmlns:xlink="http://www.w3.org/1999/xlink" width="1080" zoomAndPan="magnify" viewBox="0 0 810 809.999993" height="1080" preserveAspectRatio="xMidYMid meet" version="1.0"><defs><clipPath id="a6589db46a"><path d="M 41 326 L 759 326 L 759 654 L 41 654 Z M 41 326 " clip-rule="nonzero"/></clipPath><clipPath id="44e0027b77"><path d="M 0 476.082031 L 732.878906 299.929688 L 776.171875 480.050781 L 43.292969 656.203125 Z M 0 476.082031 " clip-rule="nonzero"/></clipPath><clipPath id="abacaeaf0e"><path d="M 0 476.082031 L 732.878906 299.929688 L 776.171875 480.050781 L 43.292969 656.203125 Z M 0 476.082031 " clip-rule="nonzero"/></clipPath></defs><g clip-path="url(#a6589db46a)"><g clip-path="url(#44e0027b77)"><g clip-path="url(#abacaeaf0e)"><path fill="#ffd058" d="M 656.492188 470.792969 C 640.710938 453.035156 608.1875 407.386719 584.703125 378.8125 C 573.304688 364.9375 563.347656 354.992188 558.328125 352.578125 C 553.882812 350.519531 550.460938 351.34375 548.199219 352.875 C 545.933594 354.40625 543.464844 357.136719 541.332031 361.269531 C 538.128906 367.796875 535.160156 378.710938 532.714844 391.800781 C 526.515625 424.878906 522.582031 473.53125 519.515625 499.109375 C 513.613281 490.988281 505.53125 479.933594 497.898438 470.089844 C 477.917969 444.457031 458.011719 419.132812 438.460938 393.234375 C 437.46875 391.828125 433.015625 386.316406 429.3125 383.917969 C 425.03125 381.164062 420.800781 381.355469 417.523438 383.460938 C 414.832031 385.257812 412.125 388.378906 409.910156 392.859375 C 406.429688 400.273438 404.070312 412.359375 402.308594 426.929688 C 398.722656 458.554688 398.601562 501.851562 397.121094 527.871094 C 397.074219 529.035156 397.023438 530.199219 396.816406 531.398438 C 386.597656 516.253906 373.800781 502.710938 363.816406 487.179688 C 348.554688 463.375 338.152344 433.796875 319.101562 412.710938 C 317.296875 410.675781 314.496094 407.238281 311.601562 405.464844 C 309.09375 403.929688 306.269531 403.128906 303.550781 403.453125 C 300.988281 403.738281 298.335938 405.035156 296.179688 407.691406 C 294.023438 410.347656 291.957031 415.449219 290.496094 422.382812 C 284.238281 453.828125 286.082031 532.679688 287.640625 552.867188 C 287.71875 553.179688 287.710938 553.839844 287.933594 554.773438 C 284.511719 551.480469 280.671875 547.140625 276.445312 542.5625 C 254.667969 518.351562 224.75 480.792969 207.453125 462.90625 C 202.457031 457.855469 198.296875 454.25 195.597656 452.59375 C 192.703125 450.824219 190.148438 450.449219 188.398438 450.707031 C 187.582031 450.738281 186.414062 451.347656 185.554688 451.882812 C 182.519531 452.941406 180.40625 455.09375 179.367188 458.304688 C 178.609375 460.625 179.003906 464.316406 178.746094 466.679688 C 176.03125 492.339844 172.339844 518.726562 171.867188 544.832031 C 171.605469 556.738281 174.402344 573.175781 171.6875 585.839844 C 165.925781 579.65625 157.710938 570.113281 148.492188 559.828125 C 130.867188 539.878906 109.386719 516.910156 92.992188 506.871094 C 83.539062 501.078125 75.09375 499.488281 69.097656 501.917969 C 64.894531 503.585938 61.171875 507.277344 58.636719 513.152344 C 55.980469 519.21875 54.195312 528.203125 53.089844 538.667969 C 50.410156 564.484375 51.628906 601.039062 48.664062 624.292969 C 48.335938 626.34375 48.160156 628.359375 47.792969 630.257812 C 46.3125 630.945312 44.984375 632.25 44.195312 633.757812 C 43.722656 634.527344 42.957031 637.507812 42.503906 640.414062 C 42.050781 643.320312 41.789062 646.34375 41.976562 647.121094 C 42.488281 650.617188 44.683594 652.226562 45.648438 652.820312 C 47.191406 653.765625 48.933594 654.167969 50.683594 653.914062 C 51.964844 653.769531 53.484375 653.238281 54.933594 651.738281 C 58.6875 648.203125 61.667969 640.742188 63.347656 630.632812 C 66.390625 611.804688 66 582.121094 67.28125 556.644531 C 67.949219 542.992188 69.109375 530.707031 71.707031 522.347656 C 72.265625 520.570312 72.863281 518.945312 73.570312 517.789062 C 74.042969 517.015625 74.203125 516.320312 74.789062 516.015625 C 76.152344 515.523438 77.777344 516.121094 79.628906 516.988281 C 83.265625 518.417969 87.160156 520.9375 91.398438 524.195312 C 105.691406 535.074219 122.632812 553.539062 136.878906 569.691406 C 150.207031 584.75 161.644531 598.125 166.804688 602.476562 C 170.960938 606.082031 174.726562 606 176.398438 605.433594 C 177.800781 605.097656 179.554688 604.183594 181.121094 602.492188 C 182.648438 600.640625 184.355469 596.777344 184.75 595.695312 C 190.160156 581.234375 187.015625 559.945312 187.191406 544.933594 C 187.726562 520.457031 191.09375 495.464844 193.449219 471.042969 C 197.105469 474.605469 202.066406 479.5 206.328125 484.234375 C 224.800781 504.964844 249.964844 536.425781 268.25 556.378906 C 276.742188 565.6875 283.972656 572.503906 288.566406 575.183594 C 290.492188 576.367188 293.050781 576.738281 295.382812 576.179688 C 298.496094 575.429688 301.113281 573.320312 302.503906 569.53125 C 303.21875 567.714844 303.710938 564.964844 303.734375 562.328125 C 303.8125 557.867188 303.085938 552.777344 302.902344 551.339844 C 301.429688 534.253906 299.808594 473.445312 303.660156 438.136719 C 304.382812 431.546875 305.289062 425.738281 306.414062 421.519531 C 306.875 422.066406 307.296875 422.457031 307.527344 422.730469 C 326.117188 443.269531 335.863281 472.183594 350.785156 495.246094 C 361.304688 511.636719 374.835938 525.496094 385.316406 541.730469 C 385.660156 542.46875 388.40625 547.734375 390.511719 551.011719 C 392.269531 553.550781 394.230469 555.546875 395.8125 556.644531 C 397.933594 557.945312 400.144531 558.238281 402.046875 557.945312 C 404.261719 557.578125 406.636719 556.511719 408.253906 553.65625 C 408.964844 552.5 409.796875 550.488281 410.40625 547.546875 C 411.21875 543.402344 411.78125 536.851562 412.246094 528.511719 C 413.761719 502.648438 413.804688 459.703125 417.347656 428.578125 C 418.53125 417.765625 420.207031 408.316406 422.59375 401.820312 C 422.910156 401.085938 423.074219 400.386719 423.425781 399.808594 C 424.542969 401.023438 425.65625 402.234375 425.886719 402.507812 C 445.472656 428.5625 465.378906 453.886719 485.359375 479.519531 C 500.160156 498.664062 513.480469 518.492188 516.980469 522.09375 C 520.402344 525.382812 523.742188 524.910156 525.144531 524.574219 C 527.320312 524.050781 528.726562 523.054688 529.628906 522.015625 C 530.957031 520.707031 531.671875 518.890625 532.203125 516.296875 C 535.5625 500.847656 539.839844 435.824219 547.546875 394.652344 C 549.421875 384.660156 551.515625 376.261719 553.742188 370.460938 C 553.820312 370.113281 554.058594 369.726562 554.292969 369.339844 C 558.371094 373.296875 565.945312 380.855469 572.429688 388.671875 C 597.148438 418.265625 631.164062 466.023438 646.796875 483.160156 C 651.023438 487.738281 654.492188 490.523438 656.5 491.355469 C 658.859375 492.269531 660.835938 492.289062 662.199219 491.796875 C 664.066406 491.347656 666.09375 490.203125 667.824219 487.8125 C 669.394531 485.460938 671.234375 479.425781 672.476562 470.902344 C 676.226562 446.804688 679.308594 398.023438 688.40625 366.0625 C 690.171875 359.714844 692.277344 354.109375 694.804688 349.554688 C 696.265625 346.734375 697.835938 344.382812 699.597656 342.808594 C 701.445312 344.335938 705.796875 348.0625 708.828125 351.777344 C 723.210938 369.871094 740.214844 402.960938 742.84375 412.53125 L 742.878906 412.6875 C 742.925781 416.292969 745.339844 419.5 748.980469 420.269531 C 753.160156 421.238281 757.296875 418.597656 758.265625 414.417969 C 758.589844 413.023438 758.277344 408.984375 756.117188 403.417969 C 750.847656 389.714844 734.675781 359.382812 720.980469 342.109375 C 714.804688 334.214844 708.644531 329.117188 703.8125 327.480469 C 699.710938 326.164062 696.019531 326.558594 692.898438 328.625 C 685.914062 333.101562 679.925781 343.09375 675.417969 356.515625 C 666.445312 383.515625 662.53125 425.417969 659.289062 453.671875 C 658.417969 459.636719 657.3125 465.992188 656.492188 470.792969 Z M 656.492188 470.792969 " fill-opacity="1" fill-rule="nonzero"/></g></g></g></svg>