<svg xmlns="http://www.w3.org/2000/svg" xmlns:xlink="http://www.w3.org/1999/xlink" width="1080" zoomAndPan="magnify" viewBox="0 0 810 809.999993" height="1080" preserveAspectRatio="xMidYMid meet" version="1.0"><path fill="#fcc751" d="M 738.808594 319.234375 C 712.519531 317.253906 686.085938 324.871094 659.78125 326.519531 C 615.539062 330.179688 571.554688 335.757812 527.742188 342.917969 C 504.042969 347.003906 480.183594 349.824219 456.285156 352.15625 C 458.164062 349.351562 460.015625 346.535156 461.921875 343.746094 C 496.710938 292.742188 534.390625 235.40625 574.988281 186.242188 C 585.320312 173.386719 595.613281 160.433594 604.835938 146.742188 C 613.460938 135.695312 621.6875 118.144531 607.96875 107.640625 C 586.785156 92.921875 573.277344 121.6875 561.09375 134.769531 C 515.214844 186.996094 474.136719 243.109375 434.992188 300.542969 C 421.710938 231.152344 404.984375 162.457031 393.441406 92.621094 C 390.636719 78.03125 392.386719 56.253906 374.835938 51.113281 C 365.910156 48.636719 355.777344 53.546875 352.359375 62.144531 C 350.125 67.726562 350.339844 73.859375 350.324219 79.78125 C 350.539062 96.367188 351.960938 112.921875 354.851562 129.246094 C 365.371094 197.246094 380.746094 264.429688 392.417969 332.230469 C 383.335938 324.882812 374.253906 317.523438 365.15625 310.207031 C 296.164062 254.722656 227.996094 198.242188 157.917969 144.164062 C 149.09375 136.863281 142.003906 126.527344 131.085938 122.1875 C 110.589844 113.304688 91.5 138.828125 105.351562 155.765625 C 105.308594 155.765625 105.253906 155.765625 105.210938 155.765625 C 122.5625 177.617188 144.964844 194.371094 166.929688 211.28125 C 209.988281 245.570312 251.582031 281.667969 294.953125 315.601562 C 313.957031 331.003906 332.929688 346.464844 351.875 361.9375 C 343.421875 362.890625 334.980469 363.929688 326.554688 365.097656 C 282.46875 371.273438 238.570312 378.71875 194.5 385.054688 C 158.929688 389.195312 128.210938 396.769531 91.972656 402.449219 C 77.539062 405.195312 59.160156 403.03125 48.683594 415.128906 C 48.699219 415.128906 48.699219 415.128906 48.714844 415.144531 C 45.183594 419.785156 43.929688 425.933594 45.398438 431.839844 C 47.589844 440.625 55.675781 445.917969 64.257812 447.042969 C 89.480469 448.75 114.832031 444.382812 139.628906 440.113281 C 204.75 430.117188 270.070312 421.179688 335.308594 411.855469 C 345.117188 410.519531 354.9375 409.40625 364.773438 408.398438 C 323.976562 474.386719 282.96875 540.277344 244.507812 607.636719 C 236.351562 622.652344 228.777344 638.054688 221.5625 653.542969 C 212.179688 669.511719 212.351562 691.492188 232.863281 697.667969 C 248.394531 702.238281 261.53125 689.484375 265.160156 675.207031 C 269.945312 664.019531 275.523438 653.1875 280.917969 642.28125 C 304.292969 597.914062 331.125 555.453125 356.988281 512.507812 C 373.441406 485.460938 389.597656 458.246094 406.066406 431.214844 C 415.363281 512.335938 425 593.445312 439.746094 673.796875 C 443.375 695.832031 446.195312 718.066406 451.191406 739.859375 C 452.585938 745.9375 457.15625 751.386719 462.449219 754.507812 C 473.695312 761.382812 489.539062 757.167969 495.984375 745.710938 C 503.089844 734.050781 496.199219 721 494.859375 708.683594 C 479.03125 621.742188 467.191406 535.183594 456.386719 447.953125 C 522.488281 502.769531 588.167969 558.085938 653.304688 614.070312 C 680.847656 633.414062 715.707031 593.1875 672.179688 565.800781 C 606.601562 509.574219 540.582031 453.90625 473.949219 398.929688 C 517.351562 394.53125 560.226562 385.949219 603.554688 380.996094 C 646.34375 376.96875 689.0625 372.285156 731.75 367.375 C 760.433594 367.601562 766.054688 326.976562 738.808594 319.234375 Z M 738.808594 319.234375 " fill-opacity="1" fill-rule="nonzero"/></svg>